<!DOCTYPE svg PUBLIC "-//W3C//DTD SVG 1.1//EN" "http://www.w3.org/Graphics/SVG/1.1/DTD/svg11.dtd">
<!-- Uploaded to: SVG Repo, www.svgrepo.com, Transformed by: SVG Repo Mixer Tools -->
<svg fill="#000000" width="800px" height="800px" viewBox="0 0 24 24" id="music-folder-10" data-name="Flat Line" xmlns="http://www.w3.org/2000/svg" class="icon flat-line">
<g id="SVGRepo_bgCarrier" stroke-width="0"/>
<g id="SVGRepo_tracerCarrier" stroke-linecap="round" stroke-linejoin="round"/>
<g id="SVGRepo_iconCarrier">
<path id="secondary" d="M18,19a2,2,0,1,1-2-2A2,2,0,0,1,18,19ZM3,17.71l2.4-8A1,1,0,0,1,6.4,9H18V6a1,1,0,0,0-1-1H9L7,3H4A1,1,0,0,0,3,4V18s0,0,0,0A.89.89,0,0,1,3,17.71Z" style="fill: #000000; stroke-width: 2;"/>
<path id="primary" d="M21,16a2.9,2.9,0,0,0-3-3v6" style="fill: none; stroke: #000000; stroke-linecap: round; stroke-linejoin: round; stroke-width: 2;"/>
<path id="primary-2" data-name="primary" d="M10,19H4a1,1,0,0,1-1-1.29l2.4-8A1,1,0,0,1,6.4,9H20" style="fill: none; stroke: #000000; stroke-linecap: round; stroke-linejoin: round; stroke-width: 2;"/>
<path id="primary-3" data-name="primary" d="M18,19a2,2,0,1,1-2-2A2,2,0,0,1,18,19ZM3,17.71l2.4-8A1,1,0,0,1,6.4,9H18V6a1,1,0,0,0-1-1H9L7,3H4A1,1,0,0,0,3,4V18s0,0,0,0A.89.89,0,0,1,3,17.71Z" style="fill: none; stroke: #000000; stroke-linecap: round; stroke-linejoin: round; stroke-width: 2;"/>
</g>
</svg>